<svg width="500" height="82" viewBox="0 0 500 82" fill="none" xmlns="http://www.w3.org/2000/svg">
<path fill-rule="evenodd" clip-rule="evenodd" d="M40.3814 0.00165475C40.669 -0.0135211 42.0613 0.077534 43.4838 0.198941C44.9064 0.335523 46.6618 0.53281 47.4185 0.669392C48.1752 0.790799 49.5977 1.09432 50.5966 1.33713C51.5954 1.57994 53.0936 2.00487 53.9259 2.30838C54.7583 2.59673 56.1505 3.14306 57.0283 3.50728C57.906 3.88667 59.3286 4.58476 60.2063 5.05521C61.0841 5.52566 62.5066 6.39069 63.3844 6.98255C64.2621 7.5744 65.6241 8.57601 66.411 9.2134C67.1829 9.85078 68.6205 11.1559 69.5891 12.112C70.5425 13.0832 71.7986 14.4491 72.3585 15.1472C72.9336 15.8604 74.0081 17.3628 74.7647 18.4858C75.5063 19.6089 76.5656 21.43 77.1104 22.5074C77.6704 23.5849 78.4119 25.2694 78.7751 26.2255C79.1383 27.1816 79.5923 28.5171 79.7891 29.1848C80.0009 29.8526 80.2733 30.8086 80.3944 31.3094C80.5155 31.8102 80.7576 33.0395 80.9241 34.0411C81.0905 35.0427 81.3175 36.9852 81.4235 38.3662C81.5597 40.3239 81.5597 41.4469 81.4083 43.526C81.3024 44.9829 81.0905 46.9709 80.9241 47.927C80.7576 48.8831 80.4549 50.3248 80.2582 51.1139C80.0615 51.9031 79.6528 53.2385 79.3804 54.0732C79.0929 54.9079 78.6389 56.1371 78.3665 56.8049C78.0941 57.4726 77.4585 58.8081 76.9742 59.7642C76.4748 60.7202 75.5668 62.2985 74.9312 63.2546C74.2956 64.2107 73.3271 65.5765 72.7823 66.2898C72.2374 66.9879 70.9965 68.384 70.0431 69.3705C69.0897 70.3721 67.5915 71.7683 66.7137 72.4967C65.836 73.21 64.2772 74.3633 63.233 75.0614C62.1888 75.7595 60.282 76.8522 58.9956 77.5047C57.7093 78.1421 55.8025 78.992 54.7583 79.3714C53.7141 79.7508 52.0494 80.2819 51.0506 80.5247C50.0518 80.7827 48.3114 81.1318 47.1915 81.2987C46.0716 81.4808 44.6945 81.6933 44.1194 81.7691C43.5595 81.8602 42.0915 81.9209 40.8355 81.9209C39.5794 81.9209 38.1114 81.8602 37.5364 81.7691C36.9764 81.6933 35.7355 81.5263 34.7821 81.3897C33.8286 81.2532 32.058 80.9041 30.8474 80.6158C29.6367 80.3123 27.8963 79.7963 26.9883 79.4624C26.0803 79.1285 24.7788 78.5974 24.1129 78.309C23.4471 78.0207 22.1456 77.3681 21.2376 76.8673C20.3296 76.3665 18.786 75.4256 17.8325 74.7731C16.8791 74.1205 15.4112 73.0127 14.5788 72.3146C13.7465 71.6013 12.3542 70.2962 11.4765 69.3856C10.5987 68.4751 9.41833 67.1548 8.85839 66.4415C8.29845 65.7283 7.40557 64.499 6.8759 63.7099C6.3311 62.9207 5.42309 61.3728 4.83288 60.2953C4.24267 59.2178 3.3498 57.3057 2.85039 56.0461C2.36612 54.8017 1.68511 52.7074 1.35218 51.4174C1.03437 50.1275 0.656037 48.4126 0.519835 47.6235C0.383634 46.8343 0.202032 45.3623 0.111231 44.3607C0.00529673 43.2528 -0.0249703 41.4621 0.0204302 39.8079C0.0809642 38.3055 0.217166 36.363 0.353367 35.4828C0.474435 34.6026 0.716571 33.2368 0.898173 32.4476C1.06464 31.6585 1.36731 30.4292 1.56405 29.716C1.76078 29.0027 2.10885 27.91 2.33585 27.2878C2.56286 26.6656 3.06226 25.406 3.45573 24.4803C3.86434 23.5546 4.63614 21.9915 5.19608 20.9899C5.75602 19.9883 6.66403 18.5162 7.22397 17.727C7.76878 16.9379 8.72219 15.6631 9.34266 14.9195C9.96313 14.1759 11.1889 12.8404 12.0818 11.9602C12.9596 11.08 14.3367 9.85078 15.1237 9.2134C15.8955 8.57601 17.2575 7.58958 18.1352 6.99772C19.013 6.40586 20.4355 5.54084 21.3133 5.07039C22.191 4.58476 23.6135 3.88667 24.4913 3.50728C25.369 3.14306 26.7613 2.59673 27.5937 2.30838C28.426 2.02004 29.7577 1.61029 30.5447 1.41301C31.3316 1.21572 32.7996 0.89703 33.7984 0.730096C34.7972 0.547985 36.5678 0.305172 37.7331 0.198941C38.8984 0.107886 40.0939 0.00165475 40.3814 0.00165475ZM28.3957 16.3916C28.4109 16.4675 29.6215 16.9076 31.0744 17.3932L33.7227 18.2582C40.9868 14.6312 42.6666 13.7054 42.5758 13.6296C42.5001 13.5537 41.3046 13.1136 39.9274 12.6431C38.5503 12.1879 37.4002 11.8085 37.3548 11.8085C37.3094 11.8236 35.2663 12.8252 32.8147 14.0545C30.3631 15.2837 28.3806 16.3309 28.3957 16.3916ZM45.7387 14.6464C43.3325 15.8452 41.2895 16.8924 41.2138 16.9683C41.1079 17.0593 41.8494 18.6831 43.3325 21.5969C44.5886 24.0706 45.6176 26.0889 45.6479 26.0738C45.663 26.0738 47.6909 25.0873 50.1425 23.8733C52.5942 22.6592 54.6069 21.6272 54.6069 21.5665C54.6069 21.4907 53.7595 19.6999 52.7304 17.5753C51.7013 15.4507 50.6722 13.4171 50.4755 13.0832L50.0971 12.461L45.7387 14.6464ZM40.9111 27.6521C40.8052 27.91 39.5794 31.5523 38.172 35.7408C36.7797 39.9293 35.6749 43.4198 35.7506 43.4805C35.8111 43.5412 40.6993 41.1737 46.6013 38.2144C52.5034 35.2552 57.3461 32.7815 57.3461 32.7056C57.3461 32.6449 57.331 32.5994 57.3007 32.5994C57.2856 32.5994 53.6233 31.3701 49.174 29.8829L41.0927 27.1664L40.9111 27.6521ZM61.1446 32.2352C61.9013 33.7376 62.552 34.982 62.5823 34.9972C62.6125 35.0123 63.8686 34.4205 65.3668 33.6769C66.8651 32.9181 68.0757 32.2352 68.0757 32.1593C68.0606 32.0834 66.2143 31.4157 63.9746 30.6569C61.7348 29.9133 59.8734 29.3518 59.8431 29.3973C59.7977 29.458 60.3879 30.7328 61.1446 32.2352ZM23.78 52.6922C23.8103 52.7681 28.9557 54.5588 35.2512 56.6683C41.5316 58.7777 46.6921 60.4471 46.7073 60.4015C46.7224 60.3408 45.0426 56.8656 42.9693 52.677C40.8809 48.4885 39.1254 45.0284 39.0497 44.9981C38.9892 44.9677 35.5085 46.6522 31.3316 48.7465C27.1548 50.8408 23.7649 52.6315 23.78 52.6922ZM13.9886 54.6195C14.034 54.6499 16.3797 53.5269 19.2097 52.1155C22.0397 50.689 24.3551 49.4901 24.3702 49.4294C24.3702 49.3687 22.6904 48.7617 20.6171 48.0787C18.559 47.3958 16.7883 46.804 16.6975 46.7736C16.6219 46.7433 15.956 48.4733 15.2296 50.6283C14.5032 52.7833 13.9432 54.574 13.9886 54.6195ZM41.6073 70.1444C41.6375 70.1748 43.3779 70.7666 45.4663 71.4496C47.5396 72.1325 49.2799 72.6485 49.3253 72.6029C49.3556 72.5422 48.2509 70.2203 46.8586 67.428C45.4663 64.6356 44.2708 62.3592 44.1951 62.3592C44.1346 62.3592 43.4989 64.0893 42.8028 66.2139C42.1067 68.3385 41.5619 70.0989 41.6073 70.1444ZM101.99 26.8477H122.723V32.6146H109.103V38.9884H121.663V44.7552H109.103V55.2266L102.066 55.1507L101.99 26.8477ZM133.74 26.8781C139.899 26.9388 141.428 26.9995 142.245 27.1968C142.775 27.3182 143.637 27.5762 144.137 27.7583C144.636 27.9252 145.408 28.2743 145.877 28.5171C146.331 28.7599 147.133 29.3973 147.663 29.9133C148.192 30.4444 148.828 31.2943 149.116 31.8558C149.403 32.3869 149.736 33.2519 149.872 33.7527C150.008 34.2535 150.145 35.2096 150.205 35.8774C150.251 36.5603 150.22 37.6681 150.114 38.4573C150.008 39.2009 149.812 40.2328 149.645 40.7336C149.494 41.2344 149.1 42.0539 148.783 42.5547C148.45 43.0555 147.859 43.784 147.451 44.1937C147.042 44.6035 146.392 45.1195 146.028 45.3319C145.65 45.5444 145.332 45.7417 145.302 45.7568C145.287 45.7872 145.347 45.9693 145.438 46.1514C145.544 46.3335 146.573 48.0029 147.723 49.8391C148.889 51.6754 150.099 53.5876 150.432 54.0884C150.75 54.5892 151.007 55.0445 151.022 55.1052C151.022 55.1659 149.206 55.1962 142.956 55.1507L138.84 47.2592H133.241L133.165 55.2266L126.128 55.1507L126.082 41.1889C126.067 33.5099 126.082 27.1361 126.128 27.0147C126.203 26.8477 127.565 26.8326 133.74 26.8781ZM133.21 37.2432L133.241 41.4924C139.733 41.4621 140.126 41.4317 140.883 41.1434C141.428 40.9309 141.942 40.5819 142.351 40.1266C142.805 39.641 143.077 39.1705 143.244 38.5635C143.41 37.9716 143.471 37.3342 143.425 36.5603C143.38 35.8167 143.244 35.2096 143.032 34.8151C142.865 34.4812 142.533 34.0259 142.29 33.7983C142.063 33.5858 141.549 33.2368 141.186 33.0395C140.535 32.7056 140.338 32.6753 136.918 32.6297C134.012 32.5994 133.316 32.6297 133.256 32.7815C133.225 32.9029 133.195 34.9061 133.21 37.2432ZM164.083 26.8477L171.377 26.8326L172.951 30.5962C173.813 32.6601 175.539 36.7727 176.78 39.7472C178.021 42.7065 179.549 46.3639 180.185 47.8663C180.805 49.3687 181.713 51.5237 182.213 52.677C182.697 53.8304 183.105 54.8624 183.105 54.9989C183.105 55.1811 182.591 55.2266 179.398 55.2266C176.583 55.2266 175.66 55.181 175.569 55.0293C175.508 54.9231 175.039 53.7545 173.617 49.9909L161.465 49.915L161.283 50.2489C161.192 50.431 160.723 51.6147 159.376 55.1507L155.835 55.1811C153.898 55.1962 152.248 55.1659 152.188 55.1052C152.127 55.0445 154.776 48.6554 158.075 40.9158L164.083 26.8477ZM165.066 40.4301C164.249 42.5244 163.583 44.2696 163.583 44.3455C163.583 44.4062 165.354 44.4517 167.518 44.4517C169.682 44.4517 171.453 44.4365 171.453 44.4214C171.453 44.391 170.968 43.1162 170.378 41.5683C169.788 40.0204 168.956 37.7592 168.517 36.5299C168.078 35.2855 167.654 34.2839 167.578 34.2839C167.488 34.2839 167.23 34.8151 166.988 35.4676C166.746 36.105 165.883 38.351 165.066 40.4301ZM184.921 26.8477H191.126L197.361 35.3007C200.796 39.9445 203.672 43.7233 203.763 43.7233C203.853 43.7081 203.929 40.7488 203.974 26.8477H210.648L210.573 55.1507L204.444 55.2266L203.384 53.8304C202.809 53.0564 200.812 50.3703 198.965 47.8663C197.104 45.3623 194.743 42.1602 193.699 40.764C192.655 39.3678 191.762 38.2751 191.701 38.3359C191.641 38.4117 191.565 42.2209 191.504 55.1507L184.921 55.2266V26.8477ZM216.248 26.8477H223.36V32.7663C223.36 36.0291 223.406 38.7153 223.466 38.7456C223.542 38.7911 225.6 36.5148 228.052 33.7224C230.504 30.9149 232.849 28.2287 234.03 26.8477H237.995C240.492 26.8477 242.005 26.9084 242.05 26.9995C242.096 27.0906 239.841 29.716 237.056 32.8422C234.272 35.9684 231.987 38.5635 231.987 38.609C231.987 38.6545 234.408 42.3119 237.359 46.7281C240.31 51.1594 242.762 54.8775 242.807 54.9989C242.868 55.1962 242.353 55.2266 234.484 55.2418L227.068 44.1482L226.705 44.4821C226.508 44.6794 225.691 45.5899 223.376 48.1698L223.285 55.1507L216.248 55.2266V26.8477ZM255.126 26.8477L262.435 26.9236L263.495 29.4276C264.07 30.8086 264.978 32.9636 265.492 34.208C266.022 35.4676 266.975 37.744 267.626 39.2919C268.262 40.8399 269.23 43.1618 269.775 44.4517C270.32 45.7417 271.182 47.8359 271.712 49.0804C272.227 50.34 272.998 52.1762 273.422 53.1778C273.831 54.1794 274.148 55.0445 274.118 55.1203C274.088 55.181 272.438 55.2266 270.456 55.2266C268.489 55.2266 266.794 55.1659 266.703 55.1052C266.627 55.0445 266.113 53.8607 264.599 49.915H258.5C252.841 49.915 252.402 49.9302 252.326 50.1882C252.281 50.3248 251.827 51.5085 250.374 55.1507L246.817 55.1962C244.865 55.2114 243.216 55.181 243.17 55.1203C243.11 55.0445 245.607 49.0652 248.724 41.7959C251.827 34.5419 254.535 28.1984 254.747 27.7128L255.126 26.8477ZM257.093 37.8654C256.578 39.2009 255.792 41.1889 255.338 42.2967C254.899 43.4046 254.581 44.3455 254.641 44.391C254.717 44.4365 256.488 44.4669 258.576 44.4669C261.028 44.4669 262.405 44.4062 262.405 44.3151C262.405 44.2241 261.936 42.9493 261.361 41.4621C260.801 39.99 259.984 37.8047 259.56 36.6058C259.121 35.4221 258.697 34.4508 258.622 34.4508C258.531 34.4508 258.364 34.6633 258.243 34.9365C258.137 35.2096 257.623 36.5299 257.093 37.8654ZM288.283 26.8629H294.897C298.544 26.8629 302.13 26.9236 302.887 27.0147C303.629 27.1057 304.764 27.303 305.384 27.4851C306.004 27.6521 307.034 28.0466 307.654 28.3501C308.426 28.7295 309.107 29.2152 309.773 29.8981C310.393 30.5051 310.968 31.2791 311.316 31.9468C311.619 32.5235 311.937 33.3126 312.043 33.692C312.134 34.0563 312.27 34.8758 312.345 35.5131C312.421 36.1354 312.421 37.2887 312.345 38.093C312.27 38.8822 312.058 39.9748 311.876 40.5212C311.695 41.0523 311.331 41.8718 311.074 42.3423C310.817 42.7976 310.257 43.5412 309.833 44.0116C309.394 44.4669 308.698 45.0436 308.275 45.3016C307.851 45.5444 307.503 45.8176 307.503 45.9086C307.518 45.9845 307.942 46.7433 308.471 47.5779C308.986 48.4126 310.242 50.4007 311.256 52.0093C312.27 53.6179 313.102 54.9989 313.102 55.09C313.102 55.181 311.695 55.2266 305.157 55.1659L304.506 53.9518C304.143 53.2841 303.205 51.4933 300.995 47.1985L295.472 47.2744L295.32 55.1659H288.359L288.283 26.8629ZM295.472 41.5076C299.573 41.5683 301.222 41.5228 301.797 41.4317C302.357 41.3407 303.159 41.0979 303.568 40.9006C303.992 40.6881 304.491 40.2935 304.688 40.0204C304.9 39.7472 305.157 39.2919 305.278 39.0036C305.399 38.7001 305.55 38.093 305.611 37.6378C305.672 37.1673 305.641 36.4237 305.55 35.9684C305.46 35.4828 305.172 34.8151 304.885 34.375C304.506 33.8135 304.143 33.4948 303.492 33.1609L302.615 32.7056L295.411 32.5994L295.472 41.5076ZM330.43 26.8933C330.929 26.8781 331.958 26.9388 332.7 27.045C333.457 27.1361 334.637 27.3637 335.348 27.5762C336.06 27.7735 337.255 28.2439 337.997 28.6233C338.753 28.9875 339.843 29.6856 340.433 30.1712C341.023 30.6417 341.947 31.5523 342.461 32.1745C343.066 32.9029 343.687 33.8742 344.141 34.8302C344.549 35.6649 345.003 36.9397 345.17 37.6378C345.336 38.351 345.503 39.4133 345.563 39.99C345.624 40.5819 345.579 41.7352 345.488 42.5699C345.382 43.4046 345.14 44.6338 344.928 45.3016C344.716 45.9693 344.292 47.0316 343.959 47.6538C343.641 48.2912 342.991 49.2776 342.491 49.8543C342.007 50.4462 341.144 51.3264 340.569 51.812C339.964 52.3128 338.859 53.0109 337.997 53.4358C337.164 53.8456 335.878 54.3616 335.121 54.574C334.38 54.7713 333.048 55.0141 332.17 55.09C331.096 55.1962 330.067 55.181 328.992 55.0748C328.114 54.9838 326.828 54.7409 326.117 54.5437C325.406 54.3312 324.225 53.8759 323.469 53.5117C322.727 53.1475 321.592 52.4494 320.972 51.9486C320.351 51.463 319.594 50.7801 319.307 50.4614C319.004 50.1275 318.474 49.4142 318.096 48.8679C317.733 48.3367 317.249 47.4565 317.007 46.9406C316.78 46.4246 316.431 45.423 316.25 44.7401C315.947 43.6626 315.902 43.1314 315.917 40.9006C315.917 38.5483 315.962 38.2144 316.326 37.0004C316.553 36.2719 316.946 35.24 317.203 34.724C317.461 34.208 317.975 33.3582 318.323 32.8574C318.686 32.3566 319.398 31.5371 319.927 31.0363C320.457 30.5203 321.335 29.807 321.88 29.4428C322.424 29.0786 323.378 28.5626 323.998 28.2894C324.619 28.0163 325.648 27.6672 326.268 27.4851C326.889 27.3182 327.887 27.1209 328.463 27.045C329.053 26.9691 329.931 26.8933 330.43 26.8933ZM326.647 33.5858C326.147 33.859 325.33 34.4964 324.831 34.9972C324.301 35.5283 323.711 36.3326 323.438 36.8942C323.166 37.4253 322.848 38.351 322.712 38.9277C322.591 39.5196 322.485 40.4756 322.485 41.0523C322.485 41.6442 322.591 42.6003 322.727 43.177C322.848 43.7688 323.181 44.6945 323.469 45.2257C323.756 45.772 324.301 46.546 324.679 46.9406C325.058 47.3351 325.723 47.8966 326.162 48.185C326.586 48.4733 327.388 48.8527 327.933 49.0348C328.478 49.2018 329.461 49.3839 330.127 49.4294C330.944 49.4901 331.716 49.4294 332.473 49.2625C333.093 49.1411 333.956 48.8527 334.365 48.6554C334.788 48.443 335.5 47.9725 335.954 47.6235C336.408 47.2593 337.043 46.5915 337.346 46.1362C337.649 45.681 338.087 44.8311 338.314 44.2393C338.647 43.3894 338.738 42.8583 338.799 41.5076C338.844 40.2784 338.799 39.5955 338.617 38.8518C338.481 38.3207 338.163 37.4253 337.891 36.879C337.588 36.2568 337.073 35.5739 336.498 34.982C335.984 34.4812 335.167 33.859 334.667 33.601C334.168 33.3278 333.32 33.0091 332.776 32.8725C332.231 32.7511 331.247 32.6449 330.581 32.6449C329.915 32.6601 328.962 32.7663 328.463 32.8877C327.963 33.0091 327.146 33.3278 326.647 33.5858ZM350.028 26.8629L357.322 26.8781C361.348 26.8781 365.252 26.9388 365.994 27.0298C366.75 27.1057 367.87 27.3182 368.491 27.4851C369.111 27.6672 370.034 28.0011 370.534 28.2287C371.033 28.4716 371.82 29.0027 372.274 29.4125C372.728 29.8222 373.288 30.4596 373.5 30.8238C373.727 31.2032 374.014 31.8709 374.151 32.3262C374.287 32.7967 374.393 33.692 374.393 34.3446C374.393 35.0427 374.287 35.8774 374.12 36.3933C373.969 36.879 373.636 37.6074 373.379 38.0172C373.122 38.4421 372.652 39.0188 372.319 39.3071C372.002 39.6106 371.548 39.99 370.836 40.4757L371.865 40.9613C372.425 41.2193 373.243 41.7656 373.681 42.1753C374.105 42.5851 374.68 43.3135 374.938 43.8143C375.195 44.3 375.467 44.907 375.528 45.1498C375.588 45.4078 375.694 46.0148 375.755 46.5156C375.815 47.0164 375.815 47.8815 375.74 48.4126C375.679 48.9589 375.467 49.8088 375.286 50.3096C375.043 50.9622 374.665 51.5085 374.014 52.1914C373.333 52.9198 372.804 53.2992 371.896 53.7393C371.23 54.058 370.14 54.4678 369.474 54.6347C368.808 54.8168 367.31 55.0141 366.145 55.1052C364.98 55.1962 360.894 55.2418 350.103 55.1659L350.028 26.8629ZM357.216 38.4724C363.966 38.4573 364.768 38.4117 365.388 38.1993C365.812 38.0627 366.372 37.7895 366.629 37.6074C366.902 37.4253 367.25 37.0307 367.416 36.7272C367.583 36.4389 367.764 35.9229 367.81 35.589C367.87 35.2552 367.84 34.6936 367.749 34.3446C367.658 33.9956 367.371 33.4492 367.098 33.1609C366.811 32.8422 366.251 32.478 365.767 32.2959C365.01 31.9923 364.571 31.962 361.045 31.9165L357.156 31.8558L357.216 38.4724ZM357.141 50.2337C365.131 50.1427 366.145 50.082 366.75 49.8847C367.174 49.7481 367.749 49.4749 368.037 49.2928C368.324 49.0955 368.703 48.701 368.869 48.4126C369.111 48.0029 369.172 47.6083 369.172 46.7281C369.172 45.7265 369.126 45.4989 368.763 44.9374C368.476 44.5124 368.097 44.1937 367.552 43.9357C367.114 43.7233 366.387 43.4805 365.918 43.4046C365.464 43.3135 363.3 43.2528 361.121 43.2528H357.141V50.2337ZM393.839 26.8781C394.339 26.8629 395.368 26.9388 396.109 27.0298C396.866 27.1209 398.062 27.3637 398.758 27.5762C399.469 27.7735 400.559 28.1832 401.179 28.4716C401.815 28.7599 402.723 29.3062 403.222 29.6553C403.721 30.0195 404.554 30.7479 405.068 31.2791C405.598 31.8102 406.143 32.4173 406.294 32.6297C406.461 32.827 406.824 33.4189 407.126 33.9197C407.429 34.4205 407.883 35.3766 408.125 36.0443C408.367 36.712 408.655 37.7592 408.761 38.3966C408.867 39.1098 408.912 40.3391 408.867 41.7352C408.806 43.3287 408.7 44.2241 408.473 45.0284C408.292 45.6354 407.898 46.6219 407.596 47.2289C407.293 47.8359 406.763 48.7465 406.4 49.2473C406.052 49.7481 405.326 50.5676 404.796 51.0836C404.266 51.5844 403.358 52.3128 402.768 52.677C402.193 53.0564 401.3 53.5421 400.801 53.7545C400.301 53.9822 399.287 54.3312 398.531 54.5437C397.789 54.7561 396.457 54.9989 395.58 55.09C394.566 55.181 393.491 55.181 392.553 55.09C391.766 54.9989 390.616 54.8017 389.98 54.6499C389.36 54.4981 388.3 54.1339 387.635 53.8607C386.969 53.5724 385.924 53.0109 385.289 52.6012C384.668 52.1914 383.715 51.4023 383.17 50.8559C382.625 50.2944 381.944 49.5053 381.657 49.0955C381.384 48.6706 380.9 47.8208 380.582 47.1985C380.28 46.5612 379.871 45.5444 379.689 44.9222C379.478 44.1482 379.341 43.1466 379.296 41.8111C379.235 40.6426 379.281 39.383 379.372 38.7304C379.462 38.1234 379.72 37.1066 379.916 36.454C380.128 35.8167 380.628 34.7088 381.021 34.0107C381.415 33.2975 382.247 32.2048 382.867 31.5219C383.518 30.839 384.562 29.9284 385.289 29.458C386 28.9875 387.226 28.3501 388.013 28.0466C388.815 27.7431 389.995 27.3941 390.661 27.2575C391.327 27.1209 392.114 26.9995 392.402 26.9691C392.704 26.9388 393.34 26.8933 393.839 26.8781ZM390.51 33.3734C390.177 33.5251 389.511 33.95 389.027 34.3143C388.482 34.724 387.862 35.3917 387.423 36.0443C387.029 36.621 386.545 37.5771 386.348 38.1689C386.03 39.0643 385.985 39.5044 385.985 41.0523C385.985 42.5244 386.046 43.0555 386.318 43.8599C386.5 44.391 386.908 45.256 387.226 45.7568C387.559 46.2576 388.179 46.9861 388.633 47.3958C389.087 47.8056 389.935 48.3671 390.51 48.6554C391.191 48.9741 391.993 49.2169 392.704 49.3232C393.34 49.4142 394.324 49.4446 394.899 49.3839C395.489 49.3383 396.367 49.1562 396.866 48.9893C397.365 48.8224 398.137 48.4581 398.576 48.1698C399.015 47.8815 399.65 47.3655 399.983 47.0013C400.332 46.6522 400.831 45.9845 401.103 45.5292C401.391 45.0588 401.754 44.2089 401.936 43.6322C402.163 42.8886 402.269 42.145 402.284 41.2041C402.284 40.4453 402.208 39.4589 402.102 39.0036C401.996 38.5331 401.663 37.6529 401.361 37.0307C400.997 36.2568 400.513 35.589 399.908 34.982C399.408 34.4812 398.576 33.8438 398.077 33.5858C397.577 33.3126 396.73 32.994 396.185 32.8574C395.655 32.736 394.656 32.6297 393.991 32.6297C393.325 32.6449 392.417 32.7511 391.948 32.8725C391.494 32.994 390.843 33.2216 390.51 33.3734ZM409.956 26.8629H434.473V32.6297H425.847L425.771 55.1659L418.734 55.2418L418.658 32.7056L409.956 32.6297V26.8629ZM444.99 26.9388V55.1659H437.878L437.847 41.2041C437.817 33.5251 437.847 27.1513 437.878 27.045C437.938 26.8933 438.74 26.8629 444.99 26.9388ZM464.059 26.8781C464.558 26.8629 465.557 26.9236 466.253 27.0147C466.964 27.1057 468.054 27.3182 468.674 27.4851C469.31 27.6521 470.43 28.077 471.171 28.4412C471.928 28.7902 472.866 29.3062 473.26 29.5946C473.835 30.0195 473.971 30.1864 473.88 30.4292C473.82 30.5962 473.336 31.704 472.776 32.9029C472.231 34.0866 471.731 35.0579 471.671 35.0579C471.61 35.0579 471.171 34.7999 470.687 34.4964C470.203 34.1777 469.34 33.7376 468.75 33.4948C468.175 33.2671 467.206 32.9636 466.601 32.8422C465.996 32.7208 464.982 32.6297 464.331 32.6297C463.68 32.6297 462.742 32.7208 462.243 32.8574C461.743 32.9788 460.971 33.2671 460.502 33.4948C460.048 33.7224 459.231 34.3294 458.686 34.8302C458.141 35.3614 457.506 36.1505 457.233 36.6665C456.961 37.1521 456.628 37.9716 456.477 38.4724C456.295 39.0946 456.204 39.8838 456.204 41.0523C456.204 42.3423 456.28 42.9645 456.537 43.784C456.719 44.3607 457.127 45.256 457.445 45.7568C457.763 46.2576 458.399 47.0013 458.853 47.411C459.307 47.8208 460.154 48.3823 460.729 48.6554C461.35 48.9438 462.273 49.2321 462.924 49.3383C463.62 49.4294 464.543 49.4598 465.269 49.3991C465.935 49.3383 466.949 49.1562 467.509 49.0045C468.069 48.8375 468.992 48.4733 469.552 48.2002C470.112 47.9118 470.823 47.5021 471.701 46.895L472.14 47.7601C472.382 48.2457 472.897 49.3687 473.971 51.9031L473.638 52.1914C473.457 52.3583 472.957 52.6922 472.533 52.9502C472.125 53.2082 471.202 53.6483 470.49 53.9366C469.794 54.225 468.568 54.6195 467.766 54.7865C466.722 55.0293 465.814 55.1203 464.361 55.1203C462.969 55.1203 461.985 55.0293 460.956 54.8168C460.169 54.6499 458.974 54.3009 458.308 54.0429C457.642 53.7849 456.673 53.3144 456.159 53.0109C455.629 52.6922 454.782 52.0852 454.282 51.6754C453.768 51.2505 452.996 50.4614 452.557 49.9302C452.118 49.3839 451.528 48.534 451.241 48.0332C450.953 47.5324 450.529 46.6067 450.302 45.9845C450.075 45.3471 449.803 44.2544 449.682 43.5563C449.561 42.8431 449.455 41.6745 449.455 40.9765C449.455 40.2632 449.561 39.0946 449.697 38.3966C449.833 37.6833 450.151 36.5603 450.393 35.8925C450.635 35.2248 451.135 34.1928 451.498 33.6162C451.861 33.0243 452.512 32.1441 452.966 31.6585C453.405 31.1577 454.146 30.4748 454.6 30.1105C455.069 29.7615 455.811 29.2607 456.265 28.9875C456.734 28.7144 457.582 28.3046 458.157 28.077C458.747 27.8493 459.7 27.5307 460.275 27.3941C460.865 27.2423 461.743 27.0754 462.243 27.0147C462.742 26.954 463.559 26.8933 464.059 26.8781ZM490.013 26.9388C491.057 26.9691 492.494 27.1209 493.191 27.2423C493.902 27.3789 495.097 27.6976 495.839 27.9556C496.596 28.1984 497.534 28.5778 497.927 28.7751C498.321 28.9724 498.684 29.2 498.714 29.291C498.76 29.3669 498.457 30.2775 498.064 31.2943C497.655 32.3262 497.231 33.3582 497.125 33.6162C497.004 33.859 496.913 34.0866 496.913 34.1018C496.913 34.117 496.323 33.859 495.612 33.5099C494.916 33.1761 493.69 32.7208 492.888 32.5235C492.071 32.311 490.784 32.1138 489.861 32.0682C488.681 32.0075 488.015 32.0531 487.213 32.2352C486.638 32.3717 485.881 32.6449 485.548 32.8422C485.215 33.0243 484.792 33.4492 484.58 33.7831C484.338 34.1777 484.216 34.6026 484.216 35.0579C484.216 35.4828 484.322 35.9077 484.504 36.1809C484.67 36.4237 485.034 36.7727 485.321 36.9549C485.624 37.137 486.335 37.4557 486.91 37.6681C487.5 37.8806 489.059 38.3055 490.391 38.609C491.723 38.9125 493.327 39.3375 493.947 39.5499C494.583 39.7624 495.597 40.2025 496.217 40.5212C496.959 40.9006 497.64 41.4165 498.154 41.9477C498.593 42.4182 499.168 43.2528 499.426 43.8143C499.834 44.6642 499.925 45.0739 499.986 46.2121C500.031 47.1834 499.97 47.8511 499.789 48.5644C499.653 49.0955 499.32 49.915 499.062 50.3855C498.805 50.8408 498.154 51.6451 497.64 52.1611C496.959 52.844 496.323 53.2841 495.43 53.709C494.749 54.0429 493.629 54.4526 492.964 54.6195C492.298 54.8017 491.027 54.9989 490.134 55.09C489.059 55.181 487.924 55.181 486.759 55.09C485.805 54.9989 484.534 54.832 483.929 54.7106C483.324 54.574 482.083 54.225 481.175 53.9063C480.267 53.6028 479.116 53.102 478.617 52.8136C478.118 52.5101 477.649 52.1762 477.573 52.0548C477.467 51.8879 477.694 51.2201 478.42 49.6267C478.965 48.4126 479.465 47.3958 479.54 47.3807C479.601 47.3503 480.191 47.6538 480.857 48.0332C481.523 48.4126 482.718 48.9286 483.505 49.1866C484.307 49.4446 485.7 49.7481 486.608 49.8847C487.954 50.082 488.56 50.0971 489.71 49.9757C490.603 49.8695 491.481 49.6722 491.98 49.4446C492.419 49.2473 492.948 48.8982 493.145 48.6706C493.342 48.443 493.569 48.0029 493.645 47.6842C493.735 47.3807 493.751 46.9406 493.705 46.7433C493.66 46.5308 493.448 46.1362 493.251 45.8631C493.039 45.5596 492.51 45.1953 491.874 44.8918C491.284 44.6187 489.332 44.042 487.289 43.526C484.428 42.8127 483.445 42.494 482.219 41.9022C481.25 41.4166 480.448 40.9006 479.949 40.4301C479.525 40.0204 478.995 39.3678 478.784 39.0036C478.557 38.6242 478.284 37.9109 478.148 37.4101C478.012 36.9093 477.906 36.0139 477.906 35.4373C477.906 34.8454 478.012 33.9652 478.148 33.4644C478.284 32.9636 478.602 32.1441 478.874 31.6585C479.147 31.1425 479.782 30.3534 480.373 29.7919C481.054 29.1545 481.78 28.6537 482.522 28.3046C483.157 28.0011 484.156 27.6369 484.761 27.4699C485.367 27.303 486.365 27.0906 486.986 27.0147C487.621 26.9388 488.984 26.9084 490.013 26.9388Z" fill="white"/>
</svg>
